<svg id="visual" viewBox="0 0 1920 1080" width="1920" height="1080" xmlns="http://www.w3.org/2000/svg" xmlns:xlink="http://www.w3.org/1999/xlink" version="1.1"><g transform="translate(956.9143908284549 560.0714127539329)"><path d="M172.4 -300.5C231.4 -264.5 292.8 -234.5 343.3 -185.4C393.8 -136.3 433.4 -68.2 452.3 10.9C471.2 90 469.4 180 427.2 243.4C384.9 306.7 302.2 343.5 224.3 347.1C146.3 350.8 73.2 321.4 14.1 297C-45 272.6 -90 253.2 -140.2 233.6C-190.5 213.9 -245.9 193.9 -307.8 155C-369.6 116 -437.8 58 -453.8 -9.2C-469.8 -76.5 -433.7 -153 -382 -209.6C-330.3 -266.2 -263.2 -302.8 -196.9 -334.7C-130.7 -366.7 -65.3 -393.8 -4.3 -386.3C56.7 -378.8 113.3 -336.6 172.4 -300.5" fill="#F25D2A"></path></g></svg>